<svg xmlns="http://www.w3.org/2000/svg" viewBox="0 0 488 488" width="488" height="488">
	<style>
		tspan { white-space:pre }
		.shp0 { fill: #000000 } 
	</style>
	<g id="Layer">
		<g id="Layer">
			<path id="Layer" fill-rule="evenodd" class="shp0" d="M481.8 481.6C473.6 489.8 461.4 489.8 453.2 481.6L312.7 341.1C279.7 367 238.1 382.5 192.9 382.5C86.5 382.5 0 296.8 0 191.4C0 86 86.7 0.2 193.1 0.2C299.5 0.2 386 85.9 386 191.3C386 237.5 369.4 279.8 341.8 312.9L481.8 453C490 461.2 490 473.4 481.8 481.6ZM192.9 341.5C276.6 341.5 344.8 274.2 344.8 191.4C344.8 108.6 276.6 41.3 192.9 41.3C109.2 41.3 41 108.6 41 191.4C41 274.1 109.2 341.5 192.9 341.5Z" />
		</g>
	</g>
	<g id="Layer">
	</g>
	<g id="Layer">
	</g>
	<g id="Layer">
	</g>
	<g id="Layer">
	</g>
	<g id="Layer">
	</g>
	<g id="Layer">
	</g>
	<g id="Layer">
	</g>
	<g id="Layer">
	</g>
	<g id="Layer">
	</g>
	<g id="Layer">
	</g>
	<g id="Layer">
	</g>
	<g id="Layer">
	</g>
	<g id="Layer">
	</g>
	<g id="Layer">
	</g>
	<g id="Layer">
	</g>
</svg>